<svg id="Layer_1" data-name="Layer 1" xmlns="http://www.w3.org/2000/svg" viewBox="0 0 995.63 698.99"><defs><style>.cls-1{fill:#ce958d;}.cls-2{fill:#010c39;}.cls-3{fill:#ee4423;}.cls-4{fill:#bf2b17;}.cls-5{fill:#eaaca0;}.cls-6{fill:#fff;}.cls-7{opacity:0.24;}.cls-8{fill:#45b597;}.cls-9{fill:#ff774c;}.cls-10{fill:#def8d1;opacity:0.5;isolation:isolate;}.cls-11{fill:#ffffd1;}.cls-12{fill:#d1d0c9;}</style></defs><path class="cls-1" d="M557.57,404.88V279.53L491.26,305.4,425,279.53V404.88l-73.87-16.59c29.65,104.46,140.18,82.9,140.18,82.9s110.53,21.57,140.18-82.9Z"/><path class="cls-2" d="M557.57,358.38V279.52l-66.31,21.59L425,279.52v81c8.84,7,35.43,23.82,66.31,25.86,25.9,1.71,56.43-19.7,66.31-28Z"/><path class="cls-3" d="M792.41,562.25s-62.39-69.55-81-127.13c-13.11-40.51-95.4-95-144.1-36.32,0,0-11.78,31.36-78.18,33.42-66.4-2.06-78.18-33.42-78.18-33.42-48.7-58.68-131-4.19-144.1,36.32-18.64,57.59-81,127.13-81,127.13,47.5,46.1,81,39.12,81,39.12L249.9,695.62H728.29l-16.92-94.25s33.53,7,81-39.12Z"/><path class="cls-4" d="M262.6,624.91l-12.69,70.71H728.3l-13.92-77.55c-.31.06-.62.13-.94.18-207.26,109-444,7.67-450.84,6.66Z"/><path class="cls-1" d="M400,214.27c12.23,16.43,15.78,44.06,2.16,54S363,266.6,350.74,250.17s-11.11-37.79,2.5-47.71,34.56-4.63,46.79,11.8Z"/><path class="cls-1" d="M392.46,248.66S386.72,231,361.6,227.23"/><path class="cls-1" d="M589.5,214.27c-12.23,16.43-15.78,44.06-2.16,54s39.23-1.64,51.46-18.07,11.11-37.79-2.5-47.71-34.56-4.63-46.79,11.8Z"/><path class="cls-1" d="M597.08,248.66s5.74-17.63,30.86-21.43"/><ellipse class="cls-5" cx="493.57" cy="207.87" rx="115.46" ry="156.34"/><path d="M482.36,160.07c-.15,2.9-.29,5.81-.44,8.71q-.54,10.53-1.07,21.06-.64,12.69-1.28,25.37-.56,11-1.12,22l-.37,7.24c-.06,1.13-.22,2.32-.17,3.45v.16a1.19,1.19,0,0,0,.87,1.14l17,3.28c1.49.29,2.12-2,.63-2.28l-17-3.28.87,1.14c.15-2.9.29-5.81.44-8.71q.54-10.53,1.07-21.06.65-12.69,1.28-25.37.56-11,1.12-22.05l.37-7.24c.06-1.13.22-2.32.17-3.45v-.16c.08-1.52-2.29-1.52-2.37,0Z"/><path class="cls-1" d="M541.66,260.26c0,11.95,11.23,21.64,25.08,21.64s25.08-9.69,25.08-21.64-11.23-21.65-25.08-21.65-25.08,9.69-25.08,21.65Z"/><path class="cls-1" d="M397.8,260.26c0,11.95,11.23,21.64,25.08,21.64S448,272.21,448,260.26s-11.23-21.65-25.08-21.65-25.08,9.69-25.08,21.65Z"/><path d="M425.45,188.06c-3.13-3.77,4.62-9.29,13.66-16.72s15.95-13.94,19.08-10.17-1.67,12.85-10.71,20.28-18.9,10.38-22,6.61Z"/><path d="M541,188.06c3.13-3.77-4.62-9.29-13.66-16.72s-15.95-13.94-19.08-10.17,1.67,12.85,10.71,20.28,18.9,10.38,22,6.61Z"/><path d="M539.69,219c0,7.34-3.58,13.28-8,13.28s-8-5.95-8-13.28,3.58-13.28,8-13.28S539.69,211.68,539.69,219Z"/><path d="M457.91,219c0,7.34-3.58,13.28-8,13.28s-8-5.95-8-13.28,3.57-13.28,8-13.28S457.91,211.68,457.91,219Z"/><path class="cls-6" d="M520,298.15s-1.11-25.85-27.06-26c-28-.14-28.17,26-28.17,26s21.58-23.9,55.23,0Z"/><path class="cls-1" d="M478.91,308.3c-.11,2.85,5.47,2.12,12.3,2.39s12.3,1.44,12.42-1.41-5.33-5.38-12.15-5.65-12.45,1.82-12.56,4.67Z"/><path d="M380.34,192s-40.78-49.32-22.28-92.21c18.87-43.76,83.88-69.15,162-64.44,69,4.17,120.23,68.78,101.13,139.5s-35.74,85.38-35.74,85.38-35.86-84.48-21.19-137.91c0,0-88.63-28.46-114.3,33.35,0,0-20.77-22.16-3.48-49.93,0,0-41.31,23.38-66.1,86.25Z"/><path d="M564.54,121.21c-3-1-6.08-1.71-9.15-2.4a170.49,170.49,0,0,0-22.92-3.61,127.36,127.36,0,0,0-29.72.64c-10.33,1.52-20.53,4.69-29.45,10.2a60.88,60.88,0,0,0-22.55,25q-1,2.15-2,4.35l2-.52a36.87,36.87,0,0,1-5.67-8.62,39.54,39.54,0,0,1-4-22.82,43.91,43.91,0,0,1,6.39-17.06,1.19,1.19,0,0,0-1.62-1.62c-5.69,3.23-10.89,7.59-15.77,11.91a180.89,180.89,0,0,0-32.69,39,217.09,217.09,0,0,0-18.19,36.09l2-.52c-1.32-1.59-2.55-3.31-3.91-5.23a151.14,151.14,0,0,1-8.94-14.38c-7.59-13.89-13.34-29.38-13.86-45.34a60.4,60.4,0,0,1,4.61-25.82,72.37,72.37,0,0,1,10.54-17.24c9.54-11.68,22.1-20.54,35.51-27.25,16-8,33.46-13.06,51.06-16.14a273.88,273.88,0,0,1,62-3.33,114.68,114.68,0,0,1,49.15,13.72,110.55,110.55,0,0,1,36.38,32.09,106.8,106.8,0,0,1,20,70.68c-.7,9.76-3,19.13-5.61,28.52q-2.22,7.88-4.67,15.68c-.46,1.46,1.83,2.08,2.28.63,3.3-10.49,6.7-21.13,8.71-31.95a113.7,113.7,0,0,0,1.79-26.62,109.65,109.65,0,0,0-14.14-48.3,112.46,112.46,0,0,0-33.36-36.45,114.05,114.05,0,0,0-47.17-19c-9.91-1.58-20-1.83-30-1.83a273,273,0,0,0-31.83,1.82c-18.78,2.19-37.44,6.38-55,13.56-14.7,6-28.76,14.16-40.18,25.32-10.83,10.58-19.28,24.12-21.65,39.25-2.63,16.8,1.59,33.85,8.44,49.16a141.75,141.75,0,0,0,17,28.56c.4.52.8,1,1.22,1.55.63.76,1.69.22,2-.52a204.21,204.21,0,0,1,32.95-56.14,152.07,152.07,0,0,1,27.32-25.91,58.31,58.31,0,0,1,5.29-3.5l-1.62-1.62c-5.47,8.87-8.14,19.09-6.53,29.47a44.58,44.58,0,0,0,7.58,18.55,30.08,30.08,0,0,0,2.62,3.34,1.2,1.2,0,0,0,2-.52,59.56,59.56,0,0,1,21-26.37c8.49-5.82,18.33-9.28,28.41-11.07a117,117,0,0,1,29.26-1.24,166.14,166.14,0,0,1,23.18,3.33q3.7.8,7.38,1.78c1.15.31,2.29.74,3.45,1l.15,0c1.45.47,2.08-1.82.63-2.28h0Z"/><path class="cls-5" d="M352.87,219s27.26-80.36,37-76.23-11.62,67.41-11.62,67.41Z"/><path d="M354,219.32c2.5-7.36,5.16-14.66,7.9-21.94,4.89-13,10-26,16.23-38.43,2.21-4.39,4.6-9.14,7.79-12.79a12.77,12.77,0,0,1,1.7-1.67,7.37,7.37,0,0,1,1.17-.64l.33-.07c-.4.07,0,0,.07,0a2.31,2.31,0,0,1,.27.06c.41.16.2.06.47.33s.26.3.17.18a3.3,3.3,0,0,1,.31.51,7.8,7.8,0,0,1,.63,2.08,19.6,19.6,0,0,1,.24,3,53.64,53.64,0,0,1-.58,8,183.94,183.94,0,0,1-4.29,20.64c-2.65,10.36-5.7,20.63-9.08,30.77l-.18.53L378,209l-22.21,7.71-3.21,1.11c-1.43.5-.81,2.78.63,2.28l18.51-6.43c2.27-.79,4.69-1.41,6.89-2.39,1.06-.47,1.3-2.19,1.63-3.19q3-9.18,5.64-18.47c2.38-8.37,4.6-16.81,6.19-25.37A93,93,0,0,0,393.58,153a22.16,22.16,0,0,0-.55-7.95c-.54-1.72-1.74-3.55-3.73-3.63-1.74-.07-3.25,1.19-4.39,2.36-4.18,4.3-7,10.19-9.56,15.51-3.77,7.68-7.1,15.58-10.29,23.51q-4.49,11.16-8.57,22.48c-1.54,4.25-3.06,8.5-4.53,12.78l-.21.6c-.49,1.45,1.79,2.07,2.28.63Z"/><path class="cls-5" d="M346.81,608.54c38-102.25,50-229.52,51.65-249.28,6-5.76,19.38-21.62,20.64-49.88,1.63-36.56-40.86-77.45-40.86-77.45s43.31-76.64,32.95-87-58.81,66-60.57,75.28,11.46,121.42,11.46,121.42-19.25,40.75-42.56,81.82c-9.7,17.09-27.44,47.19-45.68,82.5"/><path class="cls-5" d="M273.85,506c-25.58,49.52-52.14,71.83-58.92,120.44-11.62,83.27,35,72.06,35,72.06,43.36-16,74.61-29.9,96.9-90"/><path d="M377.73,503.7q9-42.09,15-84.76c2.52-17.82,4.7-35.68,6.39-53.6.11-1.15.21-2.3.32-3.46l.12-1.38c0-.2,0-.41,0-.61,0-.84.13,0-.15.07.34-.07.95-.94,1.2-1.2.51-.53,1-1.07,1.51-1.62,1.07-1.2,2.09-2.45,3.07-3.73a72.41,72.41,0,0,0,12.22-25.2c2.95-11,3.91-22.58,1.35-33.71-2.32-10.09-6.85-19.63-12.16-28.47a178,178,0,0,0-27-34.42l-.54-.53.18,1.43c3.51-6.2,6.84-12.51,10.12-18.84,6.38-12.34,12.5-24.86,17.65-37.77a124.35,124.35,0,0,0,5.78-17.32c.88-3.72,1.89-8.21.67-12-3.7-11.35-18.7,5.49-21.79,9-12,13.5-22.27,28.78-31.67,44.18-1,1.66-2,3.32-3,5a1.18,1.18,0,0,0,2,1.19,340.29,340.29,0,0,1,29.47-43c4.34-5.33,8.93-10.88,14.48-15,1.52-1.13,3.39-2.49,5.34-2.7a2.41,2.41,0,0,1,2.59,1.45c1.44,2.82.49,7.15-.17,10.17A109.87,109.87,0,0,1,405.61,173a390.55,390.55,0,0,1-16.9,36.73q-3.61,7.06-7.39,14.06c-1.29,2.39-2.76,4.73-3.94,7.17a3.3,3.3,0,0,1-.18.32,1.21,1.21,0,0,0,.18,1.43,172,172,0,0,1,23.13,28.08c5.7,8.52,10.75,17.63,14,27.38a64,64,0,0,1,3.24,14.91,69,69,0,0,1-1.18,18,73.41,73.41,0,0,1-11.25,28.06,59.54,59.54,0,0,1-6.07,7.55c-.87.92-1.91,1.6-2,2.91-.09.89-.16,1.79-.24,2.68-1.46,16.21-3.37,32.38-5.56,48.51q-5.52,40.76-13.68,81.1-1.14,5.56-2.33,11.11c-.32,1.48,2,2.12,2.28.63h0Z"/><path class="cls-5" d="M621.16,219s-27.26-80.36-37-76.23,11.62,67.41,11.62,67.41Z"/><path d="M622.61,218.23c-1-3-2.09-6-3.16-9q-3.76-10.51-7.8-20.92c-3.17-8.12-6.47-16.2-10.11-24.12-2.85-6.21-5.81-12.6-9.86-18.14-1.8-2.46-5.71-7.27-9-3.95-1.54,1.57-1.84,4.07-2,6.15a50.08,50.08,0,0,0,.62,9.86,203.2,203.2,0,0,0,5.44,25q2.91,10.8,6.33,21.45c.54,1.68,1.07,3.37,1.64,5a1.76,1.76,0,0,0,1,1.27c.7.31,1.47.51,2.2.76l21.44,7.44,1.75.61c1.44.5,2.06-1.78.63-2.28l-22.21-7.71-3.21-1.11.83.83c-2.92-8.65-5.54-17.41-7.92-26.22-1.88-6.94-3.61-13.93-4.88-21-.89-5-2-10.83-1.08-15.73a7,7,0,0,1,.66-2.1c.27-.46.16-.33.44-.61.06-.06.39-.34.13-.13a1.69,1.69,0,0,1,.41-.24c-.35.12,0,0,.08,0,.29-.08-.28,0,.11,0,.11,0,.47.05.07,0a2.74,2.74,0,0,1,.39.09,8.39,8.39,0,0,1,1.17.68c3.28,2.66,5.42,6.89,7.42,10.59,6.54,12.05,11.59,24.94,16.5,37.71,3.31,8.63,6.41,17.34,9.48,26,0,.14.09.28.14.42.49,1.43,2.77.82,2.28-.63Z"/><path class="cls-5" d="M627.21,608.54c-38-102.25-50-229.52-51.65-249.28-6-5.76-19.38-21.62-20.64-49.88-1.63-36.56,40.86-77.45,40.86-77.45s-43.31-76.64-32.95-87,58.81,66,60.57,75.28-11.46,121.42-11.46,121.42,19.25,40.75,42.56,81.82c9.7,17.09,27.44,47.19,45.68,82.5"/><path class="cls-5" d="M700.17,506c25.58,49.52,52.14,71.83,58.92,120.44,11.62,83.27-35,72.06-35,72.06-43.36-16-74.61-29.9-96.9-90"/><path d="M598.58,503.07c-6-27.7-10.84-55.62-14.82-83.67-2.53-17.81-4.72-35.68-6.42-53.59-.2-2.06-.31-4.15-.56-6.21-.16-1.27-1.18-2-2-2.84q-1.53-1.61-2.92-3.32a68.73,68.73,0,0,1-12.38-23.84c-3.28-11-4.53-22.94-2-34.24,2.28-10.07,6.78-19.53,12.09-28.33a175.13,175.13,0,0,1,26.56-33.77l.51-.5a1.19,1.19,0,0,0,.18-1.43c-3.28-5.8-6.4-11.68-9.47-17.59-6.15-11.84-12.07-23.84-17.14-36.18a148.4,148.4,0,0,1-6.06-17.1c-1-3.77-2.24-8.12-1.59-12.06.53-3.17,2.61-3.85,5.53-2.35,5.34,2.74,9.65,7.83,13.53,12.28,11.49,13.17,21.38,27.9,30.46,42.81,1,1.6,1.93,3.2,2.88,4.82a1.18,1.18,0,0,0,2-1.19,339.57,339.57,0,0,0-30.54-44.36c-4.43-5.38-9.16-11-14.91-15-2.84-2-7.43-4.21-10-.67-2.08,2.81-1.53,7-1,10.23a87,87,0,0,0,4.68,16.2,364.57,364.57,0,0,0,17.26,38.19q3.89,7.63,8,15.18c.89,1.66,1.8,3.31,2.71,5a18.9,18.9,0,0,0,1.49,2.68,2.37,2.37,0,0,1,.19.35l.18-1.43a174.89,174.89,0,0,0-23.5,28.56,119.18,119.18,0,0,0-14.11,27.5A67.66,67.66,0,0,0,554,302a68.34,68.34,0,0,0,.77,17.49,76.27,76.27,0,0,0,10.87,29.38,64.55,64.55,0,0,0,6.35,8.36c.44.49.89,1,1.34,1.44.26.27.92,1.21,1.28,1.28-.39-.08-.14-.93-.16-.15,0,.2,0,.41.05.61,0,.52.09,1,.14,1.55,1.45,16.11,3.34,32.19,5.5,48.23,3.69,27.49,8.23,54.87,13.78,82q1.17,5.73,2.4,11.45c.32,1.49,2.6.86,2.28-.63h0Z"/><g class="cls-7"><circle class="cls-8" cx="775.17" cy="263.59" r="17.18"/><circle class="cls-8" cx="791.63" cy="381.72" r="9.22"/><circle class="cls-8" cx="202.14" cy="227.58" r="14.25"/><path class="cls-8" d="M217,54.62a10.05,10.05,0,1,1-10.05-10A10.05,10.05,0,0,1,217,54.62Z"/><path class="cls-8" d="M33,258.69H22.41v-10.6a3.94,3.94,0,0,0-7.88,0v10.6H3.94a3.94,3.94,0,0,0,0,7.88h10.6v10.6a3.94,3.94,0,0,0,7.88,0v-10.6H33a3.94,3.94,0,0,0,0-7.88Z"/><path class="cls-8" d="M992.21,559.78H983v-9.2a3.42,3.42,0,1,0-6.84,0v9.2H967a3.42,3.42,0,0,0,0,6.84h9.2v9.2a3.42,3.42,0,1,0,6.84,0v-9.2h9.2a3.42,3.42,0,0,0,0-6.84Z"/><path class="cls-8" d="M990.4,211.83H983v-7.45a2.77,2.77,0,0,0-5.54,0v7.45H970a2.77,2.77,0,1,0,0,5.54h7.45v7.45a2.77,2.77,0,0,0,5.54,0v-7.45h7.45a2.77,2.77,0,0,0,0-5.54Z"/><path class="cls-8" d="M716.35,365.08a4.76,4.76,0,1,1-4.76-4.76A4.76,4.76,0,0,1,716.35,365.08Z"/><path class="cls-8" d="M238.52,367.06a5.83,5.83,0,1,1-5.83-5.83A5.83,5.83,0,0,1,238.52,367.06Z"/><path class="cls-8" d="M980.18,74.37a8.26,8.26,0,1,1-8.26-8.26A8.26,8.26,0,0,1,980.18,74.37Z"/><circle class="cls-8" cx="679.9" cy="92.97" r="4.48"/><circle class="cls-8" cx="91.25" cy="47.83" r="10.35"/></g><path class="cls-9" d="M212.88,285.76A22,22,0,0,0,182,281.84l-19.73,15.29-19.91,15.42a22,22,0,0,0-3.92,30.91h0a22,22,0,0,0,30.91,3.92l22.13-17.14L209,316.67A22,22,0,0,0,212.88,285.76Z"/><path class="cls-6" d="M191.44,330.24,189.17,332l-19.85,15.37a22,22,0,0,1-31.24-30.46,21.58,21.58,0,0,1,4.24-4.36l19.91-15.42c13.42-3.22,25.44,8,28.71,21.32a28.8,28.8,0,0,1,.49,11.8Z"/><path class="cls-10" d="M209,316.67l-17.52,13.58L189.18,332l-19.85,15.37a22,22,0,0,1-31.24-30.46s-4.3,25.22,20.4,23.46c20.47-1.46,53.29-38.64,58.88-43.56A22,22,0,0,1,209,316.68Z"/><path class="cls-11" d="M214,287.3s-3.88-4.53-12.41-4.49c-3.63,0-14.15,7.56-25,16.22-2.64,2.1-5.3,4.25-7.88,6.41-8.45,7-16.12,13.68-19.75,16.89a3.56,3.56,0,0,1-4.56.13h0a3.57,3.57,0,0,1,0-5.62c4.43-3.55,12.43-9.94,20.5-16.36,1.56-1.25,3.15-2.45,4.66-3.73,24.24-20.6,28.25-19.41,28.25-19.41a22,22,0,0,1,15.15,8.42c.39.51.75,1,1.08,1.54Z"/><path class="cls-9" d="M817.61,505.43a18.18,18.18,0,0,1,23.87-9.58l18.95,8.09,19.12,8.16A18.18,18.18,0,0,1,889.13,536h0a18.18,18.18,0,0,1-23.87,9.58L844,536.48l-16.82-7.18A18.18,18.18,0,0,1,817.61,505.43Z"/><path class="cls-6" d="M844,536.48l2.18.93,19.06,8.14a18.18,18.18,0,0,0,18.58-30.86,17.64,17.64,0,0,0-4.29-2.59l-19.12-8.16c-11.39.23-18.66,11.67-18.48,23a23.66,23.66,0,0,0,2.07,9.52Z"/><path class="cls-10" d="M827.19,529.3,844,536.49l2.18.93,19.06,8.14a18.18,18.18,0,0,0,18.58-30.86s8.69,19.24-11.4,23c-16.65,3.1-50.62-19.74-56.12-22.5a18.18,18.18,0,0,0,10.86,14.11Z"/><path class="cls-11" d="M817.06,506.88s2.16-4.42,9-6.18c2.9-.74,12.88,3.08,23.36,7.73,2.55,1.13,5.12,2.29,7.63,3.47,8.2,3.81,15.73,7.57,19.3,9.37a3,3,0,0,0,3.67-.84h0a3,3,0,0,0-1.14-4.5c-4.28-1.91-12-5.34-19.79-8.79-1.51-.68-3-1.3-4.5-2-23.66-11.4-26.61-9.6-26.61-9.6a18.15,18.15,0,0,0-10.34,9.89c-.21.49-.38,1-.54,1.46Z"/><path class="cls-6" d="M785.17,189.68c-4.16-8.28-13.58-16.36-26-21.24s-24.78-5.4-33.47-2.18l-6.06-2.39-5,12.75.07,0c-3.84,11.78,8.23,27.17,27.55,34.78s38.64,4.59,43.87-6.64l.07,0,5-12.75-6.06-2.39Z"/><ellipse class="cls-12" cx="755.21" cy="178.44" rx="23.1" ry="38.45" transform="translate(312.4 815.71) rotate(-68.5)"/><path class="cls-6" d="M778.69,189.57l-48.12-19a3.64,3.64,0,0,1-2.05-4.71h0a3.64,3.64,0,0,1,4.71-2.05l48.12,19a3.64,3.64,0,0,1,2,4.71h0A3.64,3.64,0,0,1,778.69,189.57Z"/><path class="cls-6" d="M120.79,503.68c2.83-5.63,9.24-11.13,17.66-14.45s16.86-3.67,22.77-1.48l4.12-1.62,3.42,8.68,0,0c2.61,8-5.6,18.48-18.74,23.66s-26.29,3.12-29.85-4.52l-.05,0-3.42-8.68,4.12-1.62Z"/><ellipse class="cls-12" cx="141.11" cy="496.08" rx="26.16" ry="15.72" transform="translate(-171.99 86.24) rotate(-21.5)"/><path class="cls-6" d="M125.21,503.6,158,490.7a2.46,2.46,0,0,0,1.39-3.2h0a2.46,2.46,0,0,0-3.2-1.39L123.4,499a2.46,2.46,0,0,0-1.39,3.2h0A2.46,2.46,0,0,0,125.21,503.6Z"/></svg>